<?xml version="1.0" encoding="UTF-8" standalone="no"?>
<!-- Generator: Adobe Illustrator 16.0.0, SVG Export Plug-In . SVG Version: 6.00 Build 0)  -->

<svg
   xmlns:dc="http://purl.org/dc/elements/1.1/"
   xmlns:cc="http://creativecommons.org/ns#"
   xmlns:rdf="http://www.w3.org/1999/02/22-rdf-syntax-ns#"
   xmlns:svg="http://www.w3.org/2000/svg"
   xmlns="http://www.w3.org/2000/svg"
   xmlns:sodipodi="http://sodipodi.sourceforge.net/DTD/sodipodi-0.dtd"
   xmlns:inkscape="http://www.inkscape.org/namespaces/inkscape"
   version="1.1"
   id="Camada_1"
   x="0px"
   y="0px"
   width="214.42691"
   height="56.198433"
   viewBox="0 0 214.42691 56.198433"
   enable-background="new 0 0 800 800"
   xml:space="preserve"
   inkscape:version="0.91 r13725"
   sodipodi:docname="logo.svg"><metadata
     id="metadata391"><rdf:RDF><cc:Work
         rdf:about=""><dc:format>image/svg+xml</dc:format><dc:type
           rdf:resource="http://purl.org/dc/dcmitype/StillImage" /><dc:title></dc:title></cc:Work></rdf:RDF></metadata><defs
     id="defs389" /><sodipodi:namedview
     pagecolor="#ffffff"
     bordercolor="#666666"
     borderopacity="1"
     objecttolerance="10"
     gridtolerance="10"
     guidetolerance="10"
     inkscape:pageopacity="0"
     inkscape:pageshadow="2"
     inkscape:window-width="1283"
     inkscape:window-height="761"
     id="namedview387"
     showgrid="false"
     fit-margin-top="0"
     fit-margin-left="0"
     fit-margin-right="0"
     fit-margin-bottom="0"
     inkscape:zoom="0.14672466"
     inkscape:cx="102.64039"
     inkscape:cy="79.336749"
     inkscape:window-x="0"
     inkscape:window-y="0"
     inkscape:window-maximized="0"
     inkscape:current-layer="g179" /><g
     id="g179"
     transform="translate(-393.59558,-302.84335)"><g
       transform="scale(1.0008496,0.99915108)"
       style="font-size:16.81747627px;font-family:OpenSans-Bold"
       id="text4521"><path
         d="m 443.18285,344.7269 0,-12.00545 2.54561,0 0,12.00545 -2.54561,0 z"
         style="font-style:normal;font-variant:normal;font-weight:bold;font-stretch:normal;font-family:'Open Sans';-inkscape-font-specification:'Open Sans Bold'"
         id="path4550"
         inkscape:connector-curvature="0" /><path
         d="m 459.4173,344.7269 -3.23539,0 -5.22262,-9.0821 -0.0739,0 q 0.15602,2.40602 0.15602,3.43248 l 0,5.64962 -2.27463,0 0,-12.00545 3.21076,0 5.2144,8.99177 0.0575,0 q -0.12317,-2.34032 -0.12317,-3.3093 l 0,-5.68247 2.29105,0 0,12.00545 z"
         style="font-style:normal;font-variant:normal;font-weight:bold;font-stretch:normal;font-family:'Open Sans';-inkscape-font-specification:'Open Sans Bold'"
         id="path4552"
         inkscape:connector-curvature="0" /><path
         d="m 469.51764,341.39296 q 0,1.62591 -1.17427,2.56204 -1.16605,0.93613 -3.25182,0.93613 -1.92152,0 -3.39962,-0.72262 l 0,-2.36496 q 1.21532,0.54197 2.05291,0.76368 0.8458,0.22172 1.54379,0.22172 0.83759,0 1.28102,-0.32026 0.45164,-0.32025 0.45164,-0.95255 0,-0.3531 -0.19708,-0.62409 -0.19707,-0.27919 -0.58302,-0.53375 -0.37774,-0.25457 -1.55201,-0.81296 -1.10036,-0.51733 -1.65054,-0.99361 -0.55018,-0.47628 -0.87865,-1.10857 -0.32846,-0.6323 -0.32846,-1.4781 0,-1.59306 1.07572,-2.50456 1.08394,-0.91149 2.98905,-0.91149 0.93613,0 1.78193,0.22171 0.85401,0.22172 1.78193,0.62409 l -0.82117,1.97901 q -0.96076,-0.39416 -1.59306,-0.55018 -0.62409,-0.15602 -1.23175,-0.15602 -0.72263,0 -1.10857,0.33667 -0.38595,0.33668 -0.38595,0.87865 0,0.33668 0.15602,0.59124 0.15602,0.24635 0.4927,0.48449 0.34489,0.22993 1.6177,0.83759 1.68339,0.80474 2.30747,1.6177 0.62409,0.80474 0.62409,1.979 z"
         style="font-style:normal;font-variant:normal;font-weight:bold;font-stretch:normal;font-family:'Open Sans';-inkscape-font-specification:'Open Sans Bold'"
         id="path4554"
         inkscape:connector-curvature="0" /><path
         d="m 476.29226,344.7269 -2.54562,0 0,-9.88684 -3.26003,0 0,-2.11861 9.06568,0 0,2.11861 -3.26003,0 0,9.88684 z"
         style="font-style:normal;font-variant:normal;font-weight:bold;font-stretch:normal;font-family:'Open Sans';-inkscape-font-specification:'Open Sans Bold'"
         id="path4556"
         inkscape:connector-curvature="0" /><path
         d="m 481.38348,344.7269 0,-12.00545 2.54562,0 0,12.00545 -2.54562,0 z"
         style="font-style:normal;font-variant:normal;font-weight:bold;font-stretch:normal;font-family:'Open Sans';-inkscape-font-specification:'Open Sans Bold'"
         id="path4558"
         inkscape:connector-curvature="0" /><path
         d="m 491.59879,344.7269 -2.54562,0 0,-9.88684 -3.26003,0 0,-2.11861 9.06568,0 0,2.11861 -3.26003,0 0,9.88684 z"
         style="font-style:normal;font-variant:normal;font-weight:bold;font-stretch:normal;font-family:'Open Sans';-inkscape-font-specification:'Open Sans Bold'"
         id="path4560"
         inkscape:connector-curvature="0" /><path
         d="m 506.46189,332.72145 0,7.76823 q 0,1.33029 -0.59945,2.33211 -0.59124,1.00183 -1.71624,1.53558 -1.12499,0.53376 -2.66057,0.53376 -2.31569,0 -3.59671,-1.18248 -1.28102,-1.19069 -1.28102,-3.25181 l 0,-7.73539 2.5374,0 0,7.34944 q 0,1.38777 0.5584,2.03649 0.55839,0.64872 1.84762,0.64872 1.24817,0 1.80657,-0.64872 0.5666,-0.65693 0.5666,-2.05292 l 0,-7.33301 2.5374,0 z"
         style="font-style:normal;font-variant:normal;font-weight:bold;font-stretch:normal;font-family:'Open Sans';-inkscape-font-specification:'Open Sans Bold'"
         id="path4562"
         inkscape:connector-curvature="0" /><path
         d="m 514.03304,344.7269 -2.54562,0 0,-9.88684 -3.26003,0 0,-2.11861 9.06568,0 0,2.11861 -3.26003,0 0,9.88684 z"
         style="font-style:normal;font-variant:normal;font-weight:bold;font-stretch:normal;font-family:'Open Sans';-inkscape-font-specification:'Open Sans Bold'"
         id="path4564"
         inkscape:connector-curvature="0" /><path
         d="m 530.02114,338.70775 q 0,2.98083 -1.4781,4.58211 -1.47809,1.60127 -4.23721,1.60127 -2.75912,0 -4.23722,-1.60127 -1.4781,-1.60128 -1.4781,-4.59853 0,-2.99726 1.4781,-4.57389 1.48631,-1.58485 4.25364,-1.58485 2.76733,0 4.22901,1.59306 1.46988,1.59306 1.46988,4.5821 z m -8.76184,0 q 0,2.01186 0.76369,3.0301 0.76368,1.01825 2.28284,1.01825 3.04652,0 3.04652,-4.04835 0,-4.05656 -3.0301,-4.05656 -1.51915,0 -2.29105,1.02646 -0.7719,1.01825 -0.7719,3.0301 z"
         style="font-style:normal;font-variant:normal;font-weight:bold;font-stretch:normal;font-family:'Open Sans';-inkscape-font-specification:'Open Sans Bold'"
         id="path4566"
         inkscape:connector-curvature="0" /><path
         d="m 539.39886,344.7269 -2.50456,0 0,-12.00545 6.88137,0 0,2.08576 -4.37681,0 0,3.0958 4.07298,0 0,2.07755 -4.07298,0 0,4.74634 z"
         style="font-style:normal;font-variant:normal;font-weight:bold;font-stretch:normal;font-family:'Open Sans';-inkscape-font-specification:'Open Sans Bold'"
         id="path4568"
         inkscape:connector-curvature="0" /><path
         d="m 553.03842,344.7269 -6.91422,0 0,-12.00545 6.91422,0 0,2.08576 -4.3686,0 0,2.63595 4.06477,0 0,2.08576 -4.06477,0 0,3.09579 4.3686,0 0,2.10219 z"
         style="font-style:normal;font-variant:normal;font-weight:bold;font-stretch:normal;font-family:'Open Sans';-inkscape-font-specification:'Open Sans Bold'"
         id="path4570"
         inkscape:connector-curvature="0" /><path
         d="m 565.51192,338.60921 q 0,2.96441 -1.6916,4.54105 -1.68339,1.57664 -4.86951,1.57664 l -3.39963,0 0,-12.00545 3.76915,0 q 2.93978,0 4.56569,1.55201 1.6259,1.552 1.6259,4.33575 z m -2.64415,0.0657 q 0,-3.8677 -3.41605,-3.8677 l -1.35492,0 0,7.8175 1.09215,0 q 3.67882,0 3.67882,-3.9498 z"
         style="font-style:normal;font-variant:normal;font-weight:bold;font-stretch:normal;font-family:'Open Sans';-inkscape-font-specification:'Open Sans Bold'"
         id="path4572"
         inkscape:connector-curvature="0" /><path
         d="m 574.91427,344.7269 -6.91421,0 0,-12.00545 6.91421,0 0,2.08576 -4.3686,0 0,2.63595 4.06477,0 0,2.08576 -4.06477,0 0,3.09579 4.3686,0 0,2.10219 z"
         style="font-style:normal;font-variant:normal;font-weight:bold;font-stretch:normal;font-family:'Open Sans';-inkscape-font-specification:'Open Sans Bold'"
         id="path4574"
         inkscape:connector-curvature="0" /><path
         d="m 579.97265,338.05082 0.82117,0 q 1.20711,0 1.78193,-0.40237 0.57481,-0.40237 0.57481,-1.2646 0,-0.85401 -0.59124,-1.21532 -0.58302,-0.36132 -1.81477,-0.36132 l -0.7719,0 0,3.24361 z m 0,2.06934 0,4.60674 -2.54561,0 0,-12.00545 3.49816,0 q 2.44708,0 3.62134,0.89507 1.17427,0.88686 1.17427,2.70164 0,1.0593 -0.58303,1.88868 -0.58302,0.82117 -1.65054,1.28923 2.70985,4.04835 3.53101,5.23083 l -2.82481,0 -2.86587,-4.60674 -1.35492,0 z"
         style="font-style:normal;font-variant:normal;font-weight:bold;font-stretch:normal;font-family:'Open Sans';-inkscape-font-specification:'Open Sans Bold'"
         id="path4576"
         inkscape:connector-curvature="0" /><path
         d="m 595.84579,344.7269 -0.87043,-2.85766 -4.37682,0 -0.87043,2.85766 -2.7427,0 4.23722,-12.05472 3.11222,0 4.25364,12.05472 -2.7427,0 z m -1.4781,-4.99269 q -1.20711,-3.88411 -1.36313,-4.39324 -0.14781,-0.50912 -0.2135,-0.80474 -0.27099,1.05109 -1.55201,5.19798 l 3.12864,0 z"
         style="font-style:normal;font-variant:normal;font-weight:bold;font-stretch:normal;font-family:'Open Sans';-inkscape-font-specification:'Open Sans Bold'"
         id="path4578"
         inkscape:connector-curvature="0" /><path
         d="m 600.09122,344.7269 0,-12.00545 2.54562,0 0,9.90326 4.86951,0 0,2.10219 -7.41513,0 z"
         style="font-style:normal;font-variant:normal;font-weight:bold;font-stretch:normal;font-family:'Open Sans';-inkscape-font-specification:'Open Sans Bold'"
         id="path4580"
         inkscape:connector-curvature="0" /></g><g
       transform="scale(1.0008496,0.99915108)"
       style="font-size:12.96951008px;font-family:OpenSans"
       id="text4523"><path
         d="m 444.32871,355.36986 0,3.85032 -1.07658,0 0,-9.2585 2.53944,0 q 1.70352,0 2.51411,0.65227 0.81693,0.65228 0.81693,1.96316 0,1.8365 -1.86183,2.48245 l 2.51411,4.16062 -1.27289,0 -2.2418,-3.85032 -1.93149,0 z m 0,-0.92458 1.47553,0 q 1.1399,0 1.67185,-0.44963 0.53195,-0.45596 0.53195,-1.36155 0,-0.91825 -0.54461,-1.32354 -0.53829,-0.4053 -1.73518,-0.4053 l -1.39954,0 0,3.54002 z"
         style="font-style:normal;font-variant:normal;font-weight:normal;font-stretch:normal;font-family:'Open Sans';-inkscape-font-specification:'Open Sans'"
         id="path4583"
         inkscape:connector-curvature="0" /><path
         d="m 452.17501,359.22018 -1.05124,0 0,-6.94071 1.05124,0 0,6.94071 z m -1.1399,-8.82154 q 0,-0.36097 0.17731,-0.52562 0.17732,-0.17099 0.4433,-0.17099 0.25331,0 0.43696,0.17099 0.18365,0.17098 0.18365,0.52562 0,0.35463 -0.18365,0.53195 -0.18365,0.17098 -0.43696,0.17098 -0.26598,0 -0.4433,-0.17098 -0.17731,-0.17732 -0.17731,-0.53195 z"
         style="font-style:normal;font-variant:normal;font-weight:normal;font-stretch:normal;font-family:'Open Sans';-inkscape-font-specification:'Open Sans'"
         id="path4585"
         inkscape:connector-curvature="0" /><path
         d="m 460.38227,355.74349 q 0,1.69719 -0.85492,2.65343 -0.85492,0.94992 -2.36212,0.94992 -0.93092,0 -1.65286,-0.43696 -0.72193,-0.43696 -1.11456,-1.25389 -0.39263,-0.81693 -0.39263,-1.9125 0,-1.69718 0.84859,-2.64076 0.84859,-0.94992 2.35579,-0.94992 1.45653,0 2.31146,0.96892 0.86125,0.96891 0.86125,2.62176 z m -5.28786,0 q 0,1.32989 0.53195,2.02649 0.53196,0.6966 1.5642,0.6966 1.03224,0 1.56419,-0.69027 0.53829,-0.6966 0.53829,-2.03282 0,-1.32354 -0.53829,-2.00748 -0.53195,-0.69028 -1.57686,-0.69028 -1.03224,0 -1.55786,0.67761 -0.52562,0.67761 -0.52562,2.02015 z"
         style="font-style:normal;font-variant:normal;font-weight:normal;font-stretch:normal;font-family:'Open Sans';-inkscape-font-specification:'Open Sans'"
         id="path4587"
         inkscape:connector-curvature="0" /><path
         d="m 469.84343,354.36928 3.14739,0 0,4.5026 q -0.73461,0.23431 -1.49454,0.35464 -0.75993,0.12032 -1.76051,0.12032 -2.10248,0 -3.27404,-1.24756 -1.17156,-1.25388 -1.17156,-3.50835 0,-1.44387 0.57628,-2.52677 0.58262,-1.08924 1.67185,-1.65919 1.08924,-0.57628 2.55211,-0.57628 1.48187,0 2.76109,0.54462 l -0.41797,0.94991 q -1.25389,-0.53195 -2.41278,-0.53195 -1.69085,0 -2.64077,1.00691 -0.94991,1.00691 -0.94991,2.79275 0,1.8745 0.91192,2.84341 0.91825,0.96892 2.69142,0.96892 0.96258,0 1.88084,-0.22165 l 0,-2.84975 -2.07082,0 0,-0.96258 z"
         style="font-style:normal;font-variant:normal;font-weight:normal;font-stretch:normal;font-family:'Open Sans';-inkscape-font-specification:'Open Sans'"
         id="path4589"
         inkscape:connector-curvature="0" /><path
         d="m 478.22802,352.15281 q 0.46229,0 0.82959,0.076 l -0.14566,0.97524 q -0.43062,-0.095 -0.75993,-0.095 -0.84226,0 -1.44387,0.68394 -0.59528,0.68394 -0.59528,1.70352 l 0,3.72366 -1.05124,0 0,-6.94071 0.86759,0 0.12032,1.28555 0.0507,0 q 0.3863,-0.6776 0.93092,-1.0449 0.54462,-0.36731 1.1969,-0.36731 z"
         style="font-style:normal;font-variant:normal;font-weight:normal;font-stretch:normal;font-family:'Open Sans';-inkscape-font-specification:'Open Sans'"
         id="path4591"
         inkscape:connector-curvature="0" /><path
         d="m 484.64944,359.22018 -0.20898,-0.98791 -0.0507,0 q -0.51929,0.65228 -1.03857,0.88659 -0.51296,0.22798 -1.28556,0.22798 -1.03224,0 -1.62118,-0.53195 -0.58262,-0.53196 -0.58262,-1.51353 0,-2.10248 3.3627,-2.20381 l 1.1779,-0.038 0,-0.43063 q 0,-0.81693 -0.35464,-1.20323 -0.3483,-0.39263 -1.1209,-0.39263 -0.86759,0 -1.96316,0.53195 l -0.32297,-0.80426 q 0.51296,-0.27864 1.1209,-0.43696 0.61428,-0.15832 1.22856,-0.15832 1.24122,0 1.8365,0.55095 0.60161,0.55095 0.60161,1.76684 l 0,4.73691 -0.77893,0 z m -2.37478,-0.74093 q 0.98157,0 1.53886,-0.53828 0.56361,-0.53829 0.56361,-1.5072 l 0,-0.62695 -1.05124,0.0443 q -1.25388,0.0443 -1.81117,0.39263 -0.55095,0.34197 -0.55095,1.07024 0,0.56995 0.34197,0.86759 0.3483,0.29764 0.96892,0.29764 z"
         style="font-style:normal;font-variant:normal;font-weight:normal;font-stretch:normal;font-family:'Open Sans';-inkscape-font-specification:'Open Sans'"
         id="path4593"
         inkscape:connector-curvature="0" /><path
         d="m 492.35009,359.22018 0,-4.48993 q 0,-0.84859 -0.3863,-1.26655 -0.3863,-0.41797 -1.20956,-0.41797 -1.08923,0 -1.59585,0.58895 -0.50663,0.58895 -0.50663,1.94416 l 0,3.64134 -1.05124,0 0,-6.94071 0.85493,0 0.17098,0.94992 0.0507,0 q 0.32298,-0.51296 0.90559,-0.7916 0.58262,-0.28498 1.29822,-0.28498 1.25389,0 1.88716,0.60795 0.63328,0.60161 0.63328,1.93149 l 0,4.52793 -1.05124,0 z"
         style="font-style:normal;font-variant:normal;font-weight:normal;font-stretch:normal;font-family:'Open Sans';-inkscape-font-specification:'Open Sans'"
         id="path4595"
         inkscape:connector-curvature="0" /><path
         d="m 500.27872,358.28927 -0.057,0 q -0.72827,1.05757 -2.17847,1.05757 -1.36155,0 -2.12148,-0.93092 -0.7536,-0.93091 -0.7536,-2.64709 0,-1.71618 0.75993,-2.6661 0.75994,-0.94992 2.11515,-0.94992 1.41221,0 2.16581,1.02591 l 0.0823,0 -0.0443,-0.50029 -0.0253,-0.48762 0,-2.82441 1.05124,0 0,9.85378 -0.85492,0 -0.13932,-0.93091 z m -2.10248,0.17731 q 1.07657,0 1.55786,-0.58261 0.48762,-0.58895 0.48762,-1.8935 l 0,-0.22164 q 0,-1.47554 -0.49395,-2.10248 -0.48763,-0.63328 -1.5642,-0.63328 -0.92458,0 -1.41854,0.72194 -0.48762,0.7156 -0.48762,2.02648 0,1.32988 0.48762,2.00749 0.48762,0.6776 1.43121,0.6776 z"
         style="font-style:normal;font-variant:normal;font-weight:normal;font-stretch:normal;font-family:'Open Sans';-inkscape-font-specification:'Open Sans'"
         id="path4597"
         inkscape:connector-curvature="0" /><path
         d="m 506.4405,359.34684 q -1.53886,0 -2.43178,-0.93725 -0.88659,-0.93725 -0.88659,-2.60277 0,-1.67818 0.82326,-2.66609 0.82959,-0.98792 2.2228,-0.98792 1.30455,0 2.06448,0.86126 0.75993,0.85492 0.75993,2.2608 l 0,0.66494 -4.78124,0 q 0.0317,1.22222 0.61428,1.8555 0.58895,0.63328 1.65286,0.63328 1.1209,0 2.21646,-0.46863 l 0,0.93725 q -0.55728,0.24065 -1.05757,0.34197 -0.49395,0.10766 -1.19689,0.10766 z m -0.28498,-6.31377 q -0.83592,0 -1.33621,0.54462 -0.49396,0.54462 -0.58261,1.5072 l 3.62867,0 q 0,-0.99425 -0.44329,-1.51987 -0.4433,-0.53195 -1.26656,-0.53195 z"
         style="font-style:normal;font-variant:normal;font-weight:normal;font-stretch:normal;font-family:'Open Sans';-inkscape-font-specification:'Open Sans'"
         id="path4599"
         inkscape:connector-curvature="0" /><path
         d="m 518.89706,358.28927 -0.057,0 q -0.72827,1.05757 -2.17847,1.05757 -1.36155,0 -2.12148,-0.93092 -0.7536,-0.93091 -0.7536,-2.64709 0,-1.71618 0.75993,-2.6661 0.75994,-0.94992 2.11515,-0.94992 1.41221,0 2.1658,1.02591 l 0.0823,0 -0.0443,-0.50029 -0.0253,-0.48762 0,-2.82441 1.05124,0 0,9.85378 -0.85492,0 -0.13932,-0.93091 z m -2.10248,0.17731 q 1.07657,0 1.55786,-0.58261 0.48762,-0.58895 0.48762,-1.8935 l 0,-0.22164 q 0,-1.47554 -0.49396,-2.10248 -0.48762,-0.63328 -1.56419,-0.63328 -0.92458,0 -1.41854,0.72194 -0.48762,0.7156 -0.48762,2.02648 0,1.32988 0.48762,2.00749 0.48762,0.6776 1.43121,0.6776 z"
         style="font-style:normal;font-variant:normal;font-weight:normal;font-stretch:normal;font-family:'Open Sans';-inkscape-font-specification:'Open Sans'"
         id="path4601"
         inkscape:connector-curvature="0" /><path
         d="m 528.11757,355.74349 q 0,1.69719 -0.85493,2.65343 -0.85492,0.94992 -2.36212,0.94992 -0.93092,0 -1.65285,-0.43696 -0.72194,-0.43696 -1.11457,-1.25389 -0.39263,-0.81693 -0.39263,-1.9125 0,-1.69718 0.84859,-2.64076 0.84859,-0.94992 2.35579,-0.94992 1.45654,0 2.31146,0.96892 0.86126,0.96891 0.86126,2.62176 z m -5.28787,0 q 0,1.32989 0.53196,2.02649 0.53195,0.6966 1.56419,0.6966 1.03224,0 1.56419,-0.69027 0.53829,-0.6966 0.53829,-2.03282 0,-1.32354 -0.53829,-2.00748 -0.53195,-0.69028 -1.57686,-0.69028 -1.03224,0 -1.55786,0.67761 -0.52562,0.67761 -0.52562,2.02015 z"
         style="font-style:normal;font-variant:normal;font-weight:normal;font-stretch:normal;font-family:'Open Sans';-inkscape-font-specification:'Open Sans'"
         id="path4603"
         inkscape:connector-curvature="0" /><path
         d="m 540.73877,359.22018 -1.22856,0 -5.05988,-7.7703 -0.0507,0 q 0.10132,1.36788 0.10132,2.50777 l 0,5.26253 -0.99424,0 0,-9.2585 1.21589,0 5.04722,7.73864 0.0507,0 q -0.0127,-0.17098 -0.057,-1.09557 -0.0443,-0.93092 -0.0317,-1.32988 l 0,-5.31319 1.00691,0 0,9.2585 z"
         style="font-style:normal;font-variant:normal;font-weight:normal;font-stretch:normal;font-family:'Open Sans';-inkscape-font-specification:'Open Sans'"
         id="path4605"
         inkscape:connector-curvature="0" /><path
         d="m 549.11702,355.74349 q 0,1.69719 -0.85492,2.65343 -0.85492,0.94992 -2.36212,0.94992 -0.93092,0 -1.65285,-0.43696 -0.72194,-0.43696 -1.11457,-1.25389 -0.39263,-0.81693 -0.39263,-1.9125 0,-1.69718 0.84859,-2.64076 0.84859,-0.94992 2.35579,-0.94992 1.45653,0 2.31146,0.96892 0.86125,0.96891 0.86125,2.62176 z m -5.28786,0 q 0,1.32989 0.53195,2.02649 0.53196,0.6966 1.5642,0.6966 1.03224,0 1.56419,-0.69027 0.53829,-0.6966 0.53829,-2.03282 0,-1.32354 -0.53829,-2.00748 -0.53195,-0.69028 -1.57686,-0.69028 -1.03224,0 -1.55786,0.67761 -0.52562,0.67761 -0.52562,2.02015 z"
         style="font-style:normal;font-variant:normal;font-weight:normal;font-stretch:normal;font-family:'Open Sans';-inkscape-font-specification:'Open Sans'"
         id="path4607"
         inkscape:connector-curvature="0" /><path
         d="m 554.14525,352.15281 q 0.46229,0 0.82959,0.076 l -0.14565,0.97524 q -0.43063,-0.095 -0.75994,-0.095 -0.84225,0 -1.44387,0.68394 -0.59528,0.68394 -0.59528,1.70352 l 0,3.72366 -1.05124,0 0,-6.94071 0.86759,0 0.12033,1.28555 0.0507,0 q 0.3863,-0.6776 0.93091,-1.0449 0.54462,-0.36731 1.1969,-0.36731 z"
         style="font-style:normal;font-variant:normal;font-weight:normal;font-stretch:normal;font-family:'Open Sans';-inkscape-font-specification:'Open Sans'"
         id="path4609"
         inkscape:connector-curvature="0" /><path
         d="m 558.54019,358.47925 q 0.27864,0 0.53829,-0.038 0.25964,-0.0443 0.41163,-0.0887 l 0,0.80426 q -0.17099,0.0823 -0.50663,0.13298 -0.3293,0.057 -0.59528,0.057 -2.01382,0 -2.01382,-2.12148 l 0,-4.12896 -0.99424,0 0,-0.50662 0.99424,-0.43697 0.4433,-1.48186 0.60794,0 0,1.60852 2.01382,0 0,0.81693 -2.01382,0 0,4.08463 q 0,0.62695 0.29764,0.96258 0.29764,0.33564 0.81693,0.33564 z"
         style="font-style:normal;font-variant:normal;font-weight:normal;font-stretch:normal;font-family:'Open Sans';-inkscape-font-specification:'Open Sans'"
         id="path4611"
         inkscape:connector-curvature="0" /><path
         d="m 563.81538,359.34684 q -1.53886,0 -2.43178,-0.93725 -0.88659,-0.93725 -0.88659,-2.60277 0,-1.67818 0.82326,-2.66609 0.8296,-0.98792 2.22281,-0.98792 1.30455,0 2.06448,0.86126 0.75993,0.85492 0.75993,2.2608 l 0,0.66494 -4.78124,0 q 0.0317,1.22222 0.61428,1.8555 0.58895,0.63328 1.65285,0.63328 1.1209,0 2.21647,-0.46863 l 0,0.93725 q -0.55728,0.24065 -1.05757,0.34197 -0.49396,0.10766 -1.1969,0.10766 z m -0.28497,-6.31377 q -0.83593,0 -1.33621,0.54462 -0.49396,0.54462 -0.58262,1.5072 l 3.62868,0 q 0,-0.99425 -0.4433,-1.51987 -0.44329,-0.53195 -1.26655,-0.53195 z"
         style="font-style:normal;font-variant:normal;font-weight:normal;font-stretch:normal;font-family:'Open Sans';-inkscape-font-specification:'Open Sans'"
         id="path4613"
         inkscape:connector-curvature="0" /></g><path
       id="path4525"
       d="m 420.69558,314.34335 c 0,0.7 -0.5,1.2 -1.2,1.2 l -9.7,0 c -0.7,0 -1.2,-0.5 -1.2,-1.2 l 0,-9.7 c 0,-0.7 0.5,-1.2 1.2,-1.2 l 9.7,0 c 0.7,0 1.2,0.5 1.2,1.2 l 0,9.7 z"
       inkscape:connector-curvature="0"
       style="fill:#359830" /><path
       id="path4527"
       d="m 435.19558,314.34335 c 0,0.7 -0.5,1.2 -1.2,1.2 l -9.7,0 c -0.7,0 -1.2,-0.5 -1.2,-1.2 l 0,-9.7 c 0,-0.7 0.5,-1.2 1.2,-1.2 l 9.7,0 c 0.7,0 1.2,0.5 1.2,1.2 l 0,9.7 z"
       inkscape:connector-curvature="0"
       style="fill:#359830" /><path
       id="path4529"
       d="m 435.19558,343.24335 c 0,0.7 -0.5,1.2 -1.2,1.2 l -9.7,0 c -0.7,0 -1.2,-0.5 -1.2,-1.2 l 0,-9.7 c 0,-0.7 0.5,-1.2 1.2,-1.2 l 9.7,0 c 0.7,0 1.2,0.5 1.2,1.2 l 0,9.7 z"
       inkscape:connector-curvature="0"
       style="fill:#359830" /><path
       id="path4531"
       d="m 406.19558,328.74335 c 0,0.7 -0.5,1.2 -1.2,1.2 l -9.7,0 c -0.7,0 -1.2,-0.5 -1.2,-1.2 l 0,-9.7 c 0,-0.7 0.5,-1.2 1.2,-1.2 l 9.7,0 c 0.7,0 1.2,0.5 1.2,1.2 l 0,9.7 z"
       inkscape:connector-curvature="0"
       style="fill:#359830" /><path
       id="path4533"
       d="m 420.69558,328.74335 c 0,0.7 -0.5,1.2 -1.2,1.2 l -9.7,0 c -0.7,0 -1.2,-0.5 -1.2,-1.2 l 0,-9.7 c 0,-0.7 0.5,-1.2 1.2,-1.2 l 9.7,0 c 0.7,0 1.2,0.5 1.2,1.2 l 0,9.7 z"
       inkscape:connector-curvature="0"
       style="fill:#359830" /><path
       id="path4535"
       d="m 406.19558,343.24335 c 0,0.7 -0.5,1.2 -1.2,1.2 l -9.7,0 c -0.7,0 -1.2,-0.5 -1.2,-1.2 l 0,-9.7 c 0,-0.7 0.5,-1.2 1.2,-1.2 l 9.7,0 c 0.7,0 1.2,0.5 1.2,1.2 l 0,9.7 z"
       inkscape:connector-curvature="0"
       style="fill:#359830" /><path
       id="path4537"
       d="m 420.69558,343.24335 c 0,0.7 -0.5,1.2 -1.2,1.2 l -9.7,0 c -0.7,0 -1.2,-0.5 -1.2,-1.2 l 0,-9.7 c 0,-0.7 0.5,-1.2 1.2,-1.2 l 9.7,0 c 0.7,0 1.2,0.5 1.2,1.2 l 0,9.7 z"
       inkscape:connector-curvature="0"
       style="fill:#359830" /><path
       id="path4539"
       d="m 406.19558,357.74335 c 0,0.7 -0.5,1.2 -1.2,1.2 l -9.7,0 c -0.7,0 -1.2,-0.5 -1.2,-1.2 l 0,-9.7 c 0,-0.7 0.5,-1.2 1.2,-1.2 l 9.7,0 c 0.7,0 1.2,0.5 1.2,1.2 l 0,9.7 z"
       inkscape:connector-curvature="0"
       style="fill:#359830" /><path
       id="path4541"
       d="m 420.69558,357.74335 c 0,0.7 -0.5,1.2 -1.2,1.2 l -9.7,0 c -0.7,0 -1.2,-0.5 -1.2,-1.2 l 0,-9.7 c 0,-0.7 0.5,-1.2 1.2,-1.2 l 9.7,0 c 0.7,0 1.2,0.5 1.2,1.2 l 0,9.7 z"
       inkscape:connector-curvature="0"
       style="fill:#359830" /><path
       id="path4543"
       d="m 406.79558,309.44335 c 0,3.6 -3,6.6 -6.6,6.6 -3.6,0 -6.6,-3 -6.6,-6.6 0,-3.6 3,-6.6 6.6,-6.6 3.7,0 6.6,3 6.6,6.6"
       inkscape:connector-curvature="0"
       style="fill:#c90c0f" /></g><text
     transform="scale(1.0008496,0.99915108)"
     font-size="12.26"
     id="text257"
     style="font-size:12.27041721px;font-family:OpenSans-Bold"
     x="-281.66147"
     y="273.19907" />
<text
     transform="scale(1.0008496,0.99915108)"
     font-size="12.26"
     id="text273"
     style="font-size:12.27041721px;font-family:OpenSans-Bold"
     x="-207.14368"
     y="273.19907" />
<text
     transform="scale(1.0008496,0.99915108)"
     font-size="12.26"
     id="text285"
     style="font-size:12.27041721px;font-family:OpenSans-Bold"
     x="-144.60602"
     y="273.19907" />
</svg>